<?xml version="1.0" encoding="utf-8" standalone="no"?>
<!DOCTYPE svg PUBLIC "-//W3C//DTD SVG 1.1//EN"
  "http://www.w3.org/Graphics/SVG/1.1/DTD/svg11.dtd">
<svg xmlns:xlink="http://www.w3.org/1999/xlink" width="1296pt" height="576pt" viewBox="0 0 1296 576" xmlns="http://www.w3.org/2000/svg" version="1.1">
 <metadata>
  <rdf:RDF xmlns:dc="http://purl.org/dc/elements/1.1/" xmlns:cc="http://creativecommons.org/ns#" xmlns:rdf="http://www.w3.org/1999/02/22-rdf-syntax-ns#">
   <cc:Work>
    <dc:type rdf:resource="http://purl.org/dc/dcmitype/StillImage"/>
    <dc:date>2023-08-17T23:35:44.508286</dc:date>
    <dc:format>image/svg+xml</dc:format>
    <dc:creator>
     <cc:Agent>
      <dc:title>Matplotlib v3.5.3, https://matplotlib.org/</dc:title>
     </cc:Agent>
    </dc:creator>
   </cc:Work>
  </rdf:RDF>
 </metadata>
 <defs>
  <style type="text/css">*{stroke-linejoin: round; stroke-linecap: butt}</style>
 </defs>
 <g id="figure_1">
  <g id="patch_1">
   <path d="M 0 576 
L 1296 576 
L 1296 0 
L 0 0 
z
" style="fill: #ffffff"/>
  </g>
  <g id="axes_1">
   <g id="patch_2">
    <path d="M 162 512.64 
L 1166.4 512.64 
L 1166.4 69.12 
L 162 69.12 
z
" style="fill: #ffffff"/>
   </g>
   <g id="matplotlib.axis_1">
    <g id="xtick_1">
     <g id="line2d_1">
      <defs>
       <path id="m039b8e3455" d="M 0 0 
L 0 3.5 
" style="stroke: #000000; stroke-width: 0.8"/>
      </defs>
      <g>
       <use xlink:href="#m039b8e3455" x="207.654545" y="512.64" style="stroke: #000000; stroke-width: 0.8"/>
      </g>
     </g>
     <g id="text_1">
      <!-- 0 -->
      <g transform="translate(204.473295 527.238438)scale(0.1 -0.1)">
       <defs>
        <path id="DejaVuSans-30" d="M 2034 4250 
Q 1547 4250 1301 3770 
Q 1056 3291 1056 2328 
Q 1056 1369 1301 889 
Q 1547 409 2034 409 
Q 2525 409 2770 889 
Q 3016 1369 3016 2328 
Q 3016 3291 2770 3770 
Q 2525 4250 2034 4250 
z
M 2034 4750 
Q 2819 4750 3233 4129 
Q 3647 3509 3647 2328 
Q 3647 1150 3233 529 
Q 2819 -91 2034 -91 
Q 1250 -91 836 529 
Q 422 1150 422 2328 
Q 422 3509 836 4129 
Q 1250 4750 2034 4750 
z
" transform="scale(0.015625)"/>
       </defs>
       <use xlink:href="#DejaVuSans-30"/>
      </g>
     </g>
    </g>
    <g id="xtick_2">
     <g id="line2d_2">
      <g>
       <use xlink:href="#m039b8e3455" x="322.364459" y="512.64" style="stroke: #000000; stroke-width: 0.8"/>
      </g>
     </g>
     <g id="text_2">
      <!-- 25 -->
      <g transform="translate(316.001959 527.238438)scale(0.1 -0.1)">
       <defs>
        <path id="DejaVuSans-32" d="M 1228 531 
L 3431 531 
L 3431 0 
L 469 0 
L 469 531 
Q 828 903 1448 1529 
Q 2069 2156 2228 2338 
Q 2531 2678 2651 2914 
Q 2772 3150 2772 3378 
Q 2772 3750 2511 3984 
Q 2250 4219 1831 4219 
Q 1534 4219 1204 4116 
Q 875 4013 500 3803 
L 500 4441 
Q 881 4594 1212 4672 
Q 1544 4750 1819 4750 
Q 2544 4750 2975 4387 
Q 3406 4025 3406 3419 
Q 3406 3131 3298 2873 
Q 3191 2616 2906 2266 
Q 2828 2175 2409 1742 
Q 1991 1309 1228 531 
z
" transform="scale(0.015625)"/>
        <path id="DejaVuSans-35" d="M 691 4666 
L 3169 4666 
L 3169 4134 
L 1269 4134 
L 1269 2991 
Q 1406 3038 1543 3061 
Q 1681 3084 1819 3084 
Q 2600 3084 3056 2656 
Q 3513 2228 3513 1497 
Q 3513 744 3044 326 
Q 2575 -91 1722 -91 
Q 1428 -91 1123 -41 
Q 819 9 494 109 
L 494 744 
Q 775 591 1075 516 
Q 1375 441 1709 441 
Q 2250 441 2565 725 
Q 2881 1009 2881 1497 
Q 2881 1984 2565 2268 
Q 2250 2553 1709 2553 
Q 1456 2553 1204 2497 
Q 953 2441 691 2322 
L 691 4666 
z
" transform="scale(0.015625)"/>
       </defs>
       <use xlink:href="#DejaVuSans-32"/>
       <use xlink:href="#DejaVuSans-35" x="63.623047"/>
      </g>
     </g>
    </g>
    <g id="xtick_3">
     <g id="line2d_3">
      <g>
       <use xlink:href="#m039b8e3455" x="437.074372" y="512.64" style="stroke: #000000; stroke-width: 0.8"/>
      </g>
     </g>
     <g id="text_3">
      <!-- 50 -->
      <g transform="translate(430.711872 527.238438)scale(0.1 -0.1)">
       <use xlink:href="#DejaVuSans-35"/>
       <use xlink:href="#DejaVuSans-30" x="63.623047"/>
      </g>
     </g>
    </g>
    <g id="xtick_4">
     <g id="line2d_4">
      <g>
       <use xlink:href="#m039b8e3455" x="551.784285" y="512.64" style="stroke: #000000; stroke-width: 0.8"/>
      </g>
     </g>
     <g id="text_4">
      <!-- 75 -->
      <g transform="translate(545.421785 527.238438)scale(0.1 -0.1)">
       <defs>
        <path id="DejaVuSans-37" d="M 525 4666 
L 3525 4666 
L 3525 4397 
L 1831 0 
L 1172 0 
L 2766 4134 
L 525 4134 
L 525 4666 
z
" transform="scale(0.015625)"/>
       </defs>
       <use xlink:href="#DejaVuSans-37"/>
       <use xlink:href="#DejaVuSans-35" x="63.623047"/>
      </g>
     </g>
    </g>
    <g id="xtick_5">
     <g id="line2d_5">
      <g>
       <use xlink:href="#m039b8e3455" x="666.494198" y="512.64" style="stroke: #000000; stroke-width: 0.8"/>
      </g>
     </g>
     <g id="text_5">
      <!-- 100 -->
      <g transform="translate(656.950448 527.238438)scale(0.1 -0.1)">
       <defs>
        <path id="DejaVuSans-31" d="M 794 531 
L 1825 531 
L 1825 4091 
L 703 3866 
L 703 4441 
L 1819 4666 
L 2450 4666 
L 2450 531 
L 3481 531 
L 3481 0 
L 794 0 
L 794 531 
z
" transform="scale(0.015625)"/>
       </defs>
       <use xlink:href="#DejaVuSans-31"/>
       <use xlink:href="#DejaVuSans-30" x="63.623047"/>
       <use xlink:href="#DejaVuSans-30" x="127.246094"/>
      </g>
     </g>
    </g>
    <g id="xtick_6">
     <g id="line2d_6">
      <g>
       <use xlink:href="#m039b8e3455" x="781.204111" y="512.64" style="stroke: #000000; stroke-width: 0.8"/>
      </g>
     </g>
     <g id="text_6">
      <!-- 125 -->
      <g transform="translate(771.660361 527.238438)scale(0.1 -0.1)">
       <use xlink:href="#DejaVuSans-31"/>
       <use xlink:href="#DejaVuSans-32" x="63.623047"/>
       <use xlink:href="#DejaVuSans-35" x="127.246094"/>
      </g>
     </g>
    </g>
    <g id="xtick_7">
     <g id="line2d_7">
      <g>
       <use xlink:href="#m039b8e3455" x="895.914025" y="512.64" style="stroke: #000000; stroke-width: 0.8"/>
      </g>
     </g>
     <g id="text_7">
      <!-- 150 -->
      <g transform="translate(886.370275 527.238438)scale(0.1 -0.1)">
       <use xlink:href="#DejaVuSans-31"/>
       <use xlink:href="#DejaVuSans-35" x="63.623047"/>
       <use xlink:href="#DejaVuSans-30" x="127.246094"/>
      </g>
     </g>
    </g>
    <g id="xtick_8">
     <g id="line2d_8">
      <g>
       <use xlink:href="#m039b8e3455" x="1010.623938" y="512.64" style="stroke: #000000; stroke-width: 0.8"/>
      </g>
     </g>
     <g id="text_8">
      <!-- 175 -->
      <g transform="translate(1001.080188 527.238438)scale(0.1 -0.1)">
       <use xlink:href="#DejaVuSans-31"/>
       <use xlink:href="#DejaVuSans-37" x="63.623047"/>
       <use xlink:href="#DejaVuSans-35" x="127.246094"/>
      </g>
     </g>
    </g>
    <g id="xtick_9">
     <g id="line2d_9">
      <g>
       <use xlink:href="#m039b8e3455" x="1125.333851" y="512.64" style="stroke: #000000; stroke-width: 0.8"/>
      </g>
     </g>
     <g id="text_9">
      <!-- 200 -->
      <g transform="translate(1115.790101 527.238438)scale(0.1 -0.1)">
       <use xlink:href="#DejaVuSans-32"/>
       <use xlink:href="#DejaVuSans-30" x="63.623047"/>
       <use xlink:href="#DejaVuSans-30" x="127.246094"/>
      </g>
     </g>
    </g>
   </g>
   <g id="matplotlib.axis_2">
    <g id="ytick_1">
     <g id="line2d_10">
      <defs>
       <path id="m070f6bf3cf" d="M 0 0 
L -3.5 0 
" style="stroke: #000000; stroke-width: 0.8"/>
      </defs>
      <g>
       <use xlink:href="#m070f6bf3cf" x="162" y="455.993357" style="stroke: #000000; stroke-width: 0.8"/>
      </g>
     </g>
     <g id="text_10">
      <!-- 12 -->
      <g transform="translate(142.275 459.792576)scale(0.1 -0.1)">
       <use xlink:href="#DejaVuSans-31"/>
       <use xlink:href="#DejaVuSans-32" x="63.623047"/>
      </g>
     </g>
    </g>
    <g id="ytick_2">
     <g id="line2d_11">
      <g>
       <use xlink:href="#m070f6bf3cf" x="162" y="393.524986" style="stroke: #000000; stroke-width: 0.8"/>
      </g>
     </g>
     <g id="text_11">
      <!-- 14 -->
      <g transform="translate(142.275 397.324205)scale(0.1 -0.1)">
       <defs>
        <path id="DejaVuSans-34" d="M 2419 4116 
L 825 1625 
L 2419 1625 
L 2419 4116 
z
M 2253 4666 
L 3047 4666 
L 3047 1625 
L 3713 1625 
L 3713 1100 
L 3047 1100 
L 3047 0 
L 2419 0 
L 2419 1100 
L 313 1100 
L 313 1709 
L 2253 4666 
z
" transform="scale(0.015625)"/>
       </defs>
       <use xlink:href="#DejaVuSans-31"/>
       <use xlink:href="#DejaVuSans-34" x="63.623047"/>
      </g>
     </g>
    </g>
    <g id="ytick_3">
     <g id="line2d_12">
      <g>
       <use xlink:href="#m070f6bf3cf" x="162" y="331.056615" style="stroke: #000000; stroke-width: 0.8"/>
      </g>
     </g>
     <g id="text_12">
      <!-- 16 -->
      <g transform="translate(142.275 334.855834)scale(0.1 -0.1)">
       <defs>
        <path id="DejaVuSans-36" d="M 2113 2584 
Q 1688 2584 1439 2293 
Q 1191 2003 1191 1497 
Q 1191 994 1439 701 
Q 1688 409 2113 409 
Q 2538 409 2786 701 
Q 3034 994 3034 1497 
Q 3034 2003 2786 2293 
Q 2538 2584 2113 2584 
z
M 3366 4563 
L 3366 3988 
Q 3128 4100 2886 4159 
Q 2644 4219 2406 4219 
Q 1781 4219 1451 3797 
Q 1122 3375 1075 2522 
Q 1259 2794 1537 2939 
Q 1816 3084 2150 3084 
Q 2853 3084 3261 2657 
Q 3669 2231 3669 1497 
Q 3669 778 3244 343 
Q 2819 -91 2113 -91 
Q 1303 -91 875 529 
Q 447 1150 447 2328 
Q 447 3434 972 4092 
Q 1497 4750 2381 4750 
Q 2619 4750 2861 4703 
Q 3103 4656 3366 4563 
z
" transform="scale(0.015625)"/>
       </defs>
       <use xlink:href="#DejaVuSans-31"/>
       <use xlink:href="#DejaVuSans-36" x="63.623047"/>
      </g>
     </g>
    </g>
    <g id="ytick_4">
     <g id="line2d_13">
      <g>
       <use xlink:href="#m070f6bf3cf" x="162" y="268.588244" style="stroke: #000000; stroke-width: 0.8"/>
      </g>
     </g>
     <g id="text_13">
      <!-- 18 -->
      <g transform="translate(142.275 272.387463)scale(0.1 -0.1)">
       <defs>
        <path id="DejaVuSans-38" d="M 2034 2216 
Q 1584 2216 1326 1975 
Q 1069 1734 1069 1313 
Q 1069 891 1326 650 
Q 1584 409 2034 409 
Q 2484 409 2743 651 
Q 3003 894 3003 1313 
Q 3003 1734 2745 1975 
Q 2488 2216 2034 2216 
z
M 1403 2484 
Q 997 2584 770 2862 
Q 544 3141 544 3541 
Q 544 4100 942 4425 
Q 1341 4750 2034 4750 
Q 2731 4750 3128 4425 
Q 3525 4100 3525 3541 
Q 3525 3141 3298 2862 
Q 3072 2584 2669 2484 
Q 3125 2378 3379 2068 
Q 3634 1759 3634 1313 
Q 3634 634 3220 271 
Q 2806 -91 2034 -91 
Q 1263 -91 848 271 
Q 434 634 434 1313 
Q 434 1759 690 2068 
Q 947 2378 1403 2484 
z
M 1172 3481 
Q 1172 3119 1398 2916 
Q 1625 2713 2034 2713 
Q 2441 2713 2670 2916 
Q 2900 3119 2900 3481 
Q 2900 3844 2670 4047 
Q 2441 4250 2034 4250 
Q 1625 4250 1398 4047 
Q 1172 3844 1172 3481 
z
" transform="scale(0.015625)"/>
       </defs>
       <use xlink:href="#DejaVuSans-31"/>
       <use xlink:href="#DejaVuSans-38" x="63.623047"/>
      </g>
     </g>
    </g>
    <g id="ytick_5">
     <g id="line2d_14">
      <g>
       <use xlink:href="#m070f6bf3cf" x="162" y="206.119873" style="stroke: #000000; stroke-width: 0.8"/>
      </g>
     </g>
     <g id="text_14">
      <!-- 20 -->
      <g transform="translate(142.275 209.919092)scale(0.1 -0.1)">
       <use xlink:href="#DejaVuSans-32"/>
       <use xlink:href="#DejaVuSans-30" x="63.623047"/>
      </g>
     </g>
    </g>
    <g id="ytick_6">
     <g id="line2d_15">
      <g>
       <use xlink:href="#m070f6bf3cf" x="162" y="143.651502" style="stroke: #000000; stroke-width: 0.8"/>
      </g>
     </g>
     <g id="text_15">
      <!-- 22 -->
      <g transform="translate(142.275 147.450721)scale(0.1 -0.1)">
       <use xlink:href="#DejaVuSans-32"/>
       <use xlink:href="#DejaVuSans-32" x="63.623047"/>
      </g>
     </g>
    </g>
    <g id="ytick_7">
     <g id="line2d_16">
      <g>
       <use xlink:href="#m070f6bf3cf" x="162" y="81.183131" style="stroke: #000000; stroke-width: 0.8"/>
      </g>
     </g>
     <g id="text_16">
      <!-- 24 -->
      <g transform="translate(142.275 84.98235)scale(0.1 -0.1)">
       <use xlink:href="#DejaVuSans-32"/>
       <use xlink:href="#DejaVuSans-34" x="63.623047"/>
      </g>
     </g>
    </g>
   </g>
   <g id="line2d_17">
    <path d="M 207.654545 185.047187 
L 212.242942 205.370247 
L 221.419735 133.323372 
L 226.008132 132.511312 
L 230.596528 125.889668 
L 235.184925 112.47981 
L 239.773321 107.711349 
L 244.361718 134.489483 
L 248.950114 113.604219 
L 253.538511 110.230933 
L 258.126907 107.607273 
L 262.715304 201.413906 
L 267.3037 208.36875 
L 271.892097 231.960959 
L 276.480493 223.798421 
L 281.06889 212.283389 
L 285.657286 213.657713 
L 290.245683 211.408836 
L 294.834079 187.858269 
L 299.422476 191.502261 
L 304.010873 180.695272 
L 308.599269 179.279305 
L 313.187666 161.66325 
L 317.776062 170.263006 
L 322.364459 190.481929 
L 326.952855 194.042636 
L 331.541252 179.383382 
L 336.129648 181.528182 
L 340.718045 189.107665 
L 345.306441 198.269684 
L 349.894838 189.711512 
L 354.483234 194.375836 
L 359.071631 200.789208 
L 363.660027 224.381477 
L 368.248424 217.135135 
L 372.83682 208.681099 
L 377.425217 210.575985 
L 382.013614 175.427041 
L 386.60201 164.724187 
L 391.190407 216.968565 
L 395.778803 236.604433 
L 400.3672 254.970113 
L 404.955596 255.594811 
L 409.543993 254.866037 
L 414.132389 239.144808 
L 418.720786 225.026966 
L 423.309182 240.768987 
L 427.897579 229.108235 
L 432.485975 227.025929 
L 437.074372 257.281484 
L 441.662768 269.650219 
L 446.251165 273.856415 
L 450.839561 261.092047 
L 455.427958 260.217493 
L 460.016354 279.978349 
L 464.604751 288.536461 
L 469.193148 273.231717 
L 473.781544 258.53082 
L 478.369941 250.638989 
L 482.958337 248.056971 
L 487.546734 228.650108 
L 492.13513 235.521667 
L 496.723527 223.173723 
L 501.311923 273.210926 
L 505.90032 258.260114 
L 510.488716 261.924957 
L 515.077113 263.7782 
L 519.665509 255.969654 
L 524.253906 271.878245 
L 528.842302 273.377496 
L 533.430699 276.126084 
L 538.019095 261.591757 
L 542.607492 266.027018 
L 547.195889 261.80003 
L 551.784285 283.684775 
L 556.372682 281.290179 
L 560.961078 292.201304 
L 565.549475 315.168816 
L 570.137871 341.176502 
L 574.726268 327.995678 
L 579.314664 333.784382 
L 583.903061 343.529456 
L 588.491457 322.519294 
L 593.079854 299.759936 
L 597.66825 299.114446 
L 602.256647 316.355718 
L 606.845043 320.9784 
L 611.43344 326.933703 
L 616.021836 332.056096 
L 620.610233 358.105425 
L 625.19863 347.069342 
L 629.787026 347.818968 
L 634.375423 355.356808 
L 638.963819 391.380215 
L 643.552216 403.186746 
L 648.140612 403.769801 
L 652.729009 429.48593 
L 657.317405 423.738839 
L 661.905802 433.858727 
L 666.494198 437.877532 
L 671.082595 435.462085 
L 675.670991 438.877013 
L 680.259388 445.248802 
L 684.847784 458.138128 
L 689.436181 427.674359 
L 694.024577 421.44835 
L 698.612974 401.95823 
L 703.20137 404.977525 
L 707.789767 387.52801 
L 712.378164 378.740804 
L 716.96656 395.06585 
L 721.554957 385.383269 
L 726.143353 383.280171 
L 730.73175 362.228337 
L 735.320146 362.832184 
L 739.908543 359.313149 
L 744.496939 373.493484 
L 749.085336 368.829159 
L 753.673732 365.122703 
L 758.262129 373.201926 
L 762.850525 374.222258 
L 767.438922 366.788525 
L 772.027318 365.497516 
L 776.615715 357.772255 
L 781.204111 363.227818 
L 785.792508 341.676243 
L 790.380905 345.424342 
L 794.969301 351.171432 
L 799.557698 351.754488 
L 804.146094 333.305462 
L 808.734491 333.971803 
L 813.322887 320.47863 
L 817.911284 302.94586 
L 822.49968 305.278022 
L 827.088077 300.113927 
L 831.676473 302.862575 
L 836.26487 293.200785 
L 840.853266 298.406463 
L 845.441663 289.057023 
L 850.030059 279.249514 
L 854.618456 354.336475 
L 859.206852 355.960654 
L 863.795249 339.864642 
L 868.383646 326.350648 
L 872.972042 327.70418 
L 877.560439 343.862626 
L 882.148835 342.842294 
L 886.737232 355.377659 
L 891.325628 350.3177 
L 895.914025 344.758031 
L 900.502421 334.596471 
L 905.090818 341.447209 
L 909.679214 353.940871 
L 914.267611 341.468 
L 918.856007 373.493484 
L 923.444404 381.78092 
L 928.0328 372.827113 
L 932.621197 358.480238 
L 937.209593 360.500051 
L 941.79799 370.9739 
L 946.386386 368.225283 
L 950.974783 390.609798 
L 955.56318 383.113601 
L 960.151576 385.029278 
L 964.739973 381.885026 
L 969.328369 369.141479 
L 973.916766 361.020613 
L 978.505162 362.269979 
L 983.093559 371.286249 
L 987.681955 352.753969 
L 992.270352 357.189229 
L 996.858748 348.152108 
L 1001.447145 340.343562 
L 1006.035541 316.272433 
L 1010.623938 318.833659 
L 1015.212334 320.228774 
L 1019.800731 325.205448 
L 1024.389127 321.082536 
L 1028.977524 323.789422 
L 1033.565921 317.313557 
L 1038.154317 329.765636 
L 1042.742714 328.495389 
L 1047.33111 366.018078 
L 1051.919507 354.586361 
L 1056.507903 325.72595 
L 1061.0963 326.621354 
L 1065.684696 329.245015 
L 1070.273093 321.290689 
L 1074.861489 324.539048 
L 1079.449886 345.57012 
L 1084.038282 348.901734 
L 1088.626679 335.804225 
L 1093.215075 330.952538 
L 1097.803472 321.62389 
L 1102.391868 321.186613 
L 1106.980265 314.627462 
L 1111.568661 295.741161 
L 1116.157058 293.804632 
L 1120.745455 289.931576 
L 1120.745455 289.931576 
" clip-path="url(#p44401dd0c2)" style="fill: none; stroke: #000000; stroke-width: 1.5; stroke-linecap: square"/>
   </g>
   <g id="line2d_18">
    <path d="M 666.494198 432.269928 
L 671.082595 443.123444 
L 675.670991 458.677325 
L 680.259388 445.187639 
L 684.847784 438.281099 
L 689.436181 474.152727 
L 694.024577 450.843787 
L 698.612974 437.117254 
L 703.20137 404.688155 
L 707.789767 414.470234 
L 712.378164 388.808196 
L 716.96656 381.488274 
L 721.554957 393.821563 
L 726.143353 381.701073 
L 730.73175 384.102344 
L 735.320146 361.221249 
L 739.908543 364.853573 
L 744.496939 351.755079 
L 749.085336 382.900098 
L 753.673732 354.501589 
L 758.262129 369.578704 
L 762.850525 393.207676 
L 767.438922 393.433716 
L 772.027318 371.873494 
L 776.615715 370.935034 
L 781.204111 347.095809 
L 785.792508 375.549873 
L 790.380905 348.552573 
L 794.969301 331.745508 
L 799.557698 346.828828 
L 804.146094 349.101788 
L 808.734491 332.287 
L 813.322887 321.755866 
L 817.911284 303.087448 
L 822.49968 292.14664 
L 827.088077 306.98582 
L 831.676473 290.879636 
L 836.26487 296.891748 
L 840.853266 282.834807 
L 845.441663 299.732742 
L 850.030059 287.874639 
L 854.618456 277.383547 
L 859.206852 336.391238 
L 863.795249 358.173694 
L 868.383646 329.775875 
L 872.972042 315.770919 
L 877.560439 325.403208 
L 882.148835 341.014122 
L 886.737232 324.494183 
L 891.325628 359.065795 
L 895.914025 340.766751 
L 900.502421 341.867463 
L 905.090818 337.616716 
L 909.679214 355.184612 
L 914.267611 345.40665 
L 918.856007 344.814792 
L 923.444404 381.767961 
L 928.0328 378.41516 
L 932.621197 380.802414 
L 937.209593 359.645345 
L 941.79799 360.965718 
L 946.386386 376.733722 
L 950.974783 356.630533 
L 955.56318 390.821887 
L 960.151576 384.934119 
L 964.739973 379.846715 
L 969.328369 379.095301 
L 973.916766 362.454118 
L 978.505162 367.330625 
L 983.093559 363.352304 
L 987.681955 383.816543 
L 992.270352 346.082709 
L 996.858748 349.728127 
L 1001.447145 343.495341 
L 1006.035541 338.605649 
L 1010.623938 313.832785 
L 1015.212334 324.325699 
L 1019.800731 318.687179 
L 1024.389127 312.772948 
L 1028.977524 324.563081 
L 1033.565921 319.675897 
L 1038.154317 324.841033 
L 1042.742714 342.001924 
L 1047.33111 330.930263 
L 1051.919507 356.429961 
L 1056.507903 358.437249 
L 1061.0963 328.613082 
L 1065.684696 320.972594 
L 1070.273093 335.471636 
L 1074.861489 319.513632 
L 1079.449886 324.979936 
L 1084.038282 342.107751 
L 1088.626679 343.077328 
L 1093.215075 327.559248 
L 1097.803472 327.823168 
L 1102.391868 327.210762 
L 1106.980265 326.458948 
L 1111.568661 318.284556 
L 1116.157058 301.451237 
L 1120.745455 301.735494 
" clip-path="url(#p44401dd0c2)" style="fill: none; stroke: #ff0000; stroke-width: 1.5; stroke-linecap: square"/>
   </g>
   <g id="line2d_19">
    <path d="M 666.494198 492.48 
L 666.494198 89.28 
" clip-path="url(#p44401dd0c2)" style="fill: none; stroke-dasharray: 1.5,2.475; stroke-dashoffset: 0; stroke: #000000; stroke-width: 1.5"/>
   </g>
   <g id="patch_3">
    <path d="M 162 512.64 
L 162 69.12 
" style="fill: none; stroke: #000000; stroke-width: 0.8; stroke-linejoin: miter; stroke-linecap: square"/>
   </g>
   <g id="patch_4">
    <path d="M 1166.4 512.64 
L 1166.4 69.12 
" style="fill: none; stroke: #000000; stroke-width: 0.8; stroke-linejoin: miter; stroke-linecap: square"/>
   </g>
   <g id="patch_5">
    <path d="M 162 512.64 
L 1166.4 512.64 
" style="fill: none; stroke: #000000; stroke-width: 0.8; stroke-linejoin: miter; stroke-linecap: square"/>
   </g>
   <g id="patch_6">
    <path d="M 162 69.12 
L 1166.4 69.12 
" style="fill: none; stroke: #000000; stroke-width: 0.8; stroke-linejoin: miter; stroke-linecap: square"/>
   </g>
   <g id="legend_1">
    <g id="patch_7">
     <path d="M 777.564 459.4176 
L 945.76275 459.4176 
Q 948.64275 459.4176 948.64275 456.5376 
L 948.64275 415.7046 
Q 948.64275 412.8246 945.76275 412.8246 
L 777.564 412.8246 
Q 774.684 412.8246 774.684 415.7046 
L 774.684 456.5376 
Q 774.684 459.4176 777.564 459.4176 
z
" style="fill: #ffffff; opacity: 0.8; stroke: #cccccc; stroke-linejoin: miter"/>
    </g>
    <g id="line2d_20">
     <path d="M 780.444 424.48635 
L 794.844 424.48635 
L 809.244 424.48635 
" style="fill: none; stroke: #000000; stroke-width: 1.5; stroke-linecap: square"/>
    </g>
    <g id="text_17">
     <!-- target system -->
     <g transform="translate(820.764 429.52635)scale(0.144 -0.144)">
      <defs>
       <path id="DejaVuSans-74" d="M 1172 4494 
L 1172 3500 
L 2356 3500 
L 2356 3053 
L 1172 3053 
L 1172 1153 
Q 1172 725 1289 603 
Q 1406 481 1766 481 
L 2356 481 
L 2356 0 
L 1766 0 
Q 1100 0 847 248 
Q 594 497 594 1153 
L 594 3053 
L 172 3053 
L 172 3500 
L 594 3500 
L 594 4494 
L 1172 4494 
z
" transform="scale(0.015625)"/>
       <path id="DejaVuSans-61" d="M 2194 1759 
Q 1497 1759 1228 1600 
Q 959 1441 959 1056 
Q 959 750 1161 570 
Q 1363 391 1709 391 
Q 2188 391 2477 730 
Q 2766 1069 2766 1631 
L 2766 1759 
L 2194 1759 
z
M 3341 1997 
L 3341 0 
L 2766 0 
L 2766 531 
Q 2569 213 2275 61 
Q 1981 -91 1556 -91 
Q 1019 -91 701 211 
Q 384 513 384 1019 
Q 384 1609 779 1909 
Q 1175 2209 1959 2209 
L 2766 2209 
L 2766 2266 
Q 2766 2663 2505 2880 
Q 2244 3097 1772 3097 
Q 1472 3097 1187 3025 
Q 903 2953 641 2809 
L 641 3341 
Q 956 3463 1253 3523 
Q 1550 3584 1831 3584 
Q 2591 3584 2966 3190 
Q 3341 2797 3341 1997 
z
" transform="scale(0.015625)"/>
       <path id="DejaVuSans-72" d="M 2631 2963 
Q 2534 3019 2420 3045 
Q 2306 3072 2169 3072 
Q 1681 3072 1420 2755 
Q 1159 2438 1159 1844 
L 1159 0 
L 581 0 
L 581 3500 
L 1159 3500 
L 1159 2956 
Q 1341 3275 1631 3429 
Q 1922 3584 2338 3584 
Q 2397 3584 2469 3576 
Q 2541 3569 2628 3553 
L 2631 2963 
z
" transform="scale(0.015625)"/>
       <path id="DejaVuSans-67" d="M 2906 1791 
Q 2906 2416 2648 2759 
Q 2391 3103 1925 3103 
Q 1463 3103 1205 2759 
Q 947 2416 947 1791 
Q 947 1169 1205 825 
Q 1463 481 1925 481 
Q 2391 481 2648 825 
Q 2906 1169 2906 1791 
z
M 3481 434 
Q 3481 -459 3084 -895 
Q 2688 -1331 1869 -1331 
Q 1566 -1331 1297 -1286 
Q 1028 -1241 775 -1147 
L 775 -588 
Q 1028 -725 1275 -790 
Q 1522 -856 1778 -856 
Q 2344 -856 2625 -561 
Q 2906 -266 2906 331 
L 2906 616 
Q 2728 306 2450 153 
Q 2172 0 1784 0 
Q 1141 0 747 490 
Q 353 981 353 1791 
Q 353 2603 747 3093 
Q 1141 3584 1784 3584 
Q 2172 3584 2450 3431 
Q 2728 3278 2906 2969 
L 2906 3500 
L 3481 3500 
L 3481 434 
z
" transform="scale(0.015625)"/>
       <path id="DejaVuSans-65" d="M 3597 1894 
L 3597 1613 
L 953 1613 
Q 991 1019 1311 708 
Q 1631 397 2203 397 
Q 2534 397 2845 478 
Q 3156 559 3463 722 
L 3463 178 
Q 3153 47 2828 -22 
Q 2503 -91 2169 -91 
Q 1331 -91 842 396 
Q 353 884 353 1716 
Q 353 2575 817 3079 
Q 1281 3584 2069 3584 
Q 2775 3584 3186 3129 
Q 3597 2675 3597 1894 
z
M 3022 2063 
Q 3016 2534 2758 2815 
Q 2500 3097 2075 3097 
Q 1594 3097 1305 2825 
Q 1016 2553 972 2059 
L 3022 2063 
z
" transform="scale(0.015625)"/>
       <path id="DejaVuSans-20" transform="scale(0.015625)"/>
       <path id="DejaVuSans-73" d="M 2834 3397 
L 2834 2853 
Q 2591 2978 2328 3040 
Q 2066 3103 1784 3103 
Q 1356 3103 1142 2972 
Q 928 2841 928 2578 
Q 928 2378 1081 2264 
Q 1234 2150 1697 2047 
L 1894 2003 
Q 2506 1872 2764 1633 
Q 3022 1394 3022 966 
Q 3022 478 2636 193 
Q 2250 -91 1575 -91 
Q 1294 -91 989 -36 
Q 684 19 347 128 
L 347 722 
Q 666 556 975 473 
Q 1284 391 1588 391 
Q 1994 391 2212 530 
Q 2431 669 2431 922 
Q 2431 1156 2273 1281 
Q 2116 1406 1581 1522 
L 1381 1569 
Q 847 1681 609 1914 
Q 372 2147 372 2553 
Q 372 3047 722 3315 
Q 1072 3584 1716 3584 
Q 2034 3584 2315 3537 
Q 2597 3491 2834 3397 
z
" transform="scale(0.015625)"/>
       <path id="DejaVuSans-79" d="M 2059 -325 
Q 1816 -950 1584 -1140 
Q 1353 -1331 966 -1331 
L 506 -1331 
L 506 -850 
L 844 -850 
Q 1081 -850 1212 -737 
Q 1344 -625 1503 -206 
L 1606 56 
L 191 3500 
L 800 3500 
L 1894 763 
L 2988 3500 
L 3597 3500 
L 2059 -325 
z
" transform="scale(0.015625)"/>
       <path id="DejaVuSans-6d" d="M 3328 2828 
Q 3544 3216 3844 3400 
Q 4144 3584 4550 3584 
Q 5097 3584 5394 3201 
Q 5691 2819 5691 2113 
L 5691 0 
L 5113 0 
L 5113 2094 
Q 5113 2597 4934 2840 
Q 4756 3084 4391 3084 
Q 3944 3084 3684 2787 
Q 3425 2491 3425 1978 
L 3425 0 
L 2847 0 
L 2847 2094 
Q 2847 2600 2669 2842 
Q 2491 3084 2119 3084 
Q 1678 3084 1418 2786 
Q 1159 2488 1159 1978 
L 1159 0 
L 581 0 
L 581 3500 
L 1159 3500 
L 1159 2956 
Q 1356 3278 1631 3431 
Q 1906 3584 2284 3584 
Q 2666 3584 2933 3390 
Q 3200 3197 3328 2828 
z
" transform="scale(0.015625)"/>
      </defs>
      <use xlink:href="#DejaVuSans-74"/>
      <use xlink:href="#DejaVuSans-61" x="39.208984"/>
      <use xlink:href="#DejaVuSans-72" x="100.488281"/>
      <use xlink:href="#DejaVuSans-67" x="139.851562"/>
      <use xlink:href="#DejaVuSans-65" x="203.328125"/>
      <use xlink:href="#DejaVuSans-74" x="264.851562"/>
      <use xlink:href="#DejaVuSans-20" x="304.060547"/>
      <use xlink:href="#DejaVuSans-73" x="335.847656"/>
      <use xlink:href="#DejaVuSans-79" x="387.947266"/>
      <use xlink:href="#DejaVuSans-73" x="447.126953"/>
      <use xlink:href="#DejaVuSans-74" x="499.226562"/>
      <use xlink:href="#DejaVuSans-65" x="538.435547"/>
      <use xlink:href="#DejaVuSans-6d" x="599.958984"/>
     </g>
    </g>
    <g id="line2d_21">
     <path d="M 780.444 445.62285 
L 794.844 445.62285 
L 809.244 445.62285 
" style="fill: none; stroke: #ff0000; stroke-width: 1.5; stroke-linecap: square"/>
    </g>
    <g id="text_18">
     <!-- free running ESN -->
     <g transform="translate(820.764 450.66285)scale(0.144 -0.144)">
      <defs>
       <path id="DejaVuSans-66" d="M 2375 4863 
L 2375 4384 
L 1825 4384 
Q 1516 4384 1395 4259 
Q 1275 4134 1275 3809 
L 1275 3500 
L 2222 3500 
L 2222 3053 
L 1275 3053 
L 1275 0 
L 697 0 
L 697 3053 
L 147 3053 
L 147 3500 
L 697 3500 
L 697 3744 
Q 697 4328 969 4595 
Q 1241 4863 1831 4863 
L 2375 4863 
z
" transform="scale(0.015625)"/>
       <path id="DejaVuSans-75" d="M 544 1381 
L 544 3500 
L 1119 3500 
L 1119 1403 
Q 1119 906 1312 657 
Q 1506 409 1894 409 
Q 2359 409 2629 706 
Q 2900 1003 2900 1516 
L 2900 3500 
L 3475 3500 
L 3475 0 
L 2900 0 
L 2900 538 
Q 2691 219 2414 64 
Q 2138 -91 1772 -91 
Q 1169 -91 856 284 
Q 544 659 544 1381 
z
M 1991 3584 
L 1991 3584 
z
" transform="scale(0.015625)"/>
       <path id="DejaVuSans-6e" d="M 3513 2113 
L 3513 0 
L 2938 0 
L 2938 2094 
Q 2938 2591 2744 2837 
Q 2550 3084 2163 3084 
Q 1697 3084 1428 2787 
Q 1159 2491 1159 1978 
L 1159 0 
L 581 0 
L 581 3500 
L 1159 3500 
L 1159 2956 
Q 1366 3272 1645 3428 
Q 1925 3584 2291 3584 
Q 2894 3584 3203 3211 
Q 3513 2838 3513 2113 
z
" transform="scale(0.015625)"/>
       <path id="DejaVuSans-69" d="M 603 3500 
L 1178 3500 
L 1178 0 
L 603 0 
L 603 3500 
z
M 603 4863 
L 1178 4863 
L 1178 4134 
L 603 4134 
L 603 4863 
z
" transform="scale(0.015625)"/>
       <path id="DejaVuSans-45" d="M 628 4666 
L 3578 4666 
L 3578 4134 
L 1259 4134 
L 1259 2753 
L 3481 2753 
L 3481 2222 
L 1259 2222 
L 1259 531 
L 3634 531 
L 3634 0 
L 628 0 
L 628 4666 
z
" transform="scale(0.015625)"/>
       <path id="DejaVuSans-53" d="M 3425 4513 
L 3425 3897 
Q 3066 4069 2747 4153 
Q 2428 4238 2131 4238 
Q 1616 4238 1336 4038 
Q 1056 3838 1056 3469 
Q 1056 3159 1242 3001 
Q 1428 2844 1947 2747 
L 2328 2669 
Q 3034 2534 3370 2195 
Q 3706 1856 3706 1288 
Q 3706 609 3251 259 
Q 2797 -91 1919 -91 
Q 1588 -91 1214 -16 
Q 841 59 441 206 
L 441 856 
Q 825 641 1194 531 
Q 1563 422 1919 422 
Q 2459 422 2753 634 
Q 3047 847 3047 1241 
Q 3047 1584 2836 1778 
Q 2625 1972 2144 2069 
L 1759 2144 
Q 1053 2284 737 2584 
Q 422 2884 422 3419 
Q 422 4038 858 4394 
Q 1294 4750 2059 4750 
Q 2388 4750 2728 4690 
Q 3069 4631 3425 4513 
z
" transform="scale(0.015625)"/>
       <path id="DejaVuSans-4e" d="M 628 4666 
L 1478 4666 
L 3547 763 
L 3547 4666 
L 4159 4666 
L 4159 0 
L 3309 0 
L 1241 3903 
L 1241 0 
L 628 0 
L 628 4666 
z
" transform="scale(0.015625)"/>
      </defs>
      <use xlink:href="#DejaVuSans-66"/>
      <use xlink:href="#DejaVuSans-72" x="35.205078"/>
      <use xlink:href="#DejaVuSans-65" x="74.068359"/>
      <use xlink:href="#DejaVuSans-65" x="135.591797"/>
      <use xlink:href="#DejaVuSans-20" x="197.115234"/>
      <use xlink:href="#DejaVuSans-72" x="228.902344"/>
      <use xlink:href="#DejaVuSans-75" x="270.015625"/>
      <use xlink:href="#DejaVuSans-6e" x="333.394531"/>
      <use xlink:href="#DejaVuSans-6e" x="396.773438"/>
      <use xlink:href="#DejaVuSans-69" x="460.152344"/>
      <use xlink:href="#DejaVuSans-6e" x="487.935547"/>
      <use xlink:href="#DejaVuSans-67" x="551.314453"/>
      <use xlink:href="#DejaVuSans-20" x="614.791016"/>
      <use xlink:href="#DejaVuSans-45" x="646.578125"/>
      <use xlink:href="#DejaVuSans-53" x="709.761719"/>
      <use xlink:href="#DejaVuSans-4e" x="773.238281"/>
     </g>
    </g>
   </g>
  </g>
 </g>
 <defs>
  <clipPath id="p44401dd0c2">
   <rect x="162" y="69.12" width="1004.4" height="443.52"/>
  </clipPath>
 </defs>
</svg>
